<!-- icon666.com - MILLIONS vector ICONS FREE --><svg fill="none" viewBox="0 0 24 24" xmlns="http://www.w3.org/2000/svg"><path clip-rule="evenodd" d="m14.707 2.7069-1.293 1.29294h.586c1.5913 0 3.1175.63211 4.2427 1.75727s1.7573 2.65121 1.7573 4.24243v6.16966c.6675.2359 1.2301.7002 1.5884 1.3108s.4891 1.3281.3694 2.0259c-.1196.6977-.4821 1.3306-1.0234 1.787-.5413.4563-1.2264.7065-1.9344.7065-.7079 0-1.3931-.2502-1.9343-.7065-.5413-.4564-.9038-1.0893-1.0235-1.787-.1197-.6978.0112-1.4153.3695-2.0259.3582-.6106.9208-1.0749 1.5883-1.3108v-6.16966c0-1.06081-.4214-2.07818-1.1715-2.82828-.7502-.75011-1.7676-1.17152-2.8285-1.17152h-.586l1.293 1.29294c.1822.18859.283.44118.2807.70336-.0023.26219-.1074.51299-.2929.69839-.1854.18539-.4362.29056-.6984.29284-.2622.00227-.5148-.09852-.7034-.28066l-3-2.99985c-.1874-.18752-.2928-.44182-.2928-.70697s.1054-.51945.2928-.70696l3-2.99986c.0923-.0955.2026-.17168.3246-.22409.122-.0524.2533-.079987.386-.081141.1328-.001154.2645.024151.3874.074421.1229.05028.2345.12453.3284.21842s.1682.20553.2185.32842c.0502.12289.0755.25457.0744.38734-.0012.13277-.0288.26399-.0812.38598-.0524.122-.1286.23234-.2241.32458zm3.293 16.2922c0-.2652.1054-.5195.2929-.7071.1876-.1875.4419-.2929.7071-.2929s.5196.1054.7071.2929c.1876.1876.2929.4419.2929.7071s-.1053.5195-.2929.7071c-.1875.1875-.4419.2928-.7071.2928s-.5195-.1053-.7071-.2928c-.1875-.1876-.2929-.4419-.2929-.7071zm-11.99997-14.99926c-.26522 0-.51957.10535-.70711.29288-.18753.18753-.29289.44187-.29289.70707s.10536.51954.29289.70707c.18754.18753.44189.29288.70711.29288s.51957-.10535.70711-.29288c.18753-.18753.29289-.44187.29289-.70707s-.10536-.51954-.29289-.70707c-.18754-.18753-.44189-.29288-.70711-.29288zm1 3.82981c.66749-.23589 1.23009-.70016 1.58836-1.31074s.48913-1.32815.36945-2.02588c-.11967-.69773-.48218-1.33069-1.02344-1.787s-1.22642-.70658-1.93437-.70658-1.39311.25027-1.93437.70658-.90377 1.08927-1.02344 1.787c-.11968.69773.01118 1.4153.36945 2.02588s.92087 1.07485 1.58836 1.31074v8.33955c-.66749.2359-1.23009.7002-1.58836 1.3108s-.48913 1.3281-.36945 2.0259c.11967.6977.48218 1.3306 1.02344 1.787.54126.4563 1.22642.7065 1.93437.7065s1.39311-.2502 1.93437-.7065c.54126-.4564.90377-1.0893 1.02344-1.787.11968-.6978-.01118-1.4153-.36945-2.0259s-.92087-1.0749-1.58836-1.3108zm-1 10.16945c-.26522 0-.51957.1054-.70711.2929-.18753.1876-.29289.4419-.29289.7071s.10536.5195.29289.7071c.18754.1875.44189.2928.70711.2928s.51957-.1053.70711-.2928c.18753-.1876.29289-.4419.29289-.7071s-.10536-.5195-.29289-.7071c-.18754-.1875-.44189-.2929-.70711-.2929z" fill="#424242" fill-rule="evenodd" style="fill: #424242;"></path></svg>